<svg xmlns="http://www.w3.org/2000/svg" viewBox="82 300.797 211.25 64.427"><defs><style>.a{fill:#fff;}.b{fill:#66d5ff;}</style></defs><g transform="translate(82.2 300.797)"><g transform="translate(-0.2 33.798)"><path class="a" d="M13.931,151.5a10.642,10.642,0,0,1,7.925,3.1c.536.58.96.647.96.045v-1.183A1.239,1.239,0,0,1,24.2,152.08l4.175.045a1.289,1.289,0,0,1,1.384,1.384v20.248a60.707,60.707,0,0,0,.313,6.318,1.192,1.192,0,0,1-1.295,1.5H24.6a1.449,1.449,0,0,1-1.563-1.183,6.538,6.538,0,0,1-.156-1.5c-.112-.759-.491-.848-.96-.313a11.223,11.223,0,0,1-8.416,3.438c-7.925,0-13.707-6.7-13.707-15.158C-.155,158.2,5.894,151.5,13.931,151.5Zm1.295,24.221c4.934,0,8.528-3.907,8.528-8.952s-3.594-8.952-8.528-8.952c-5.134,0-8.528,3.75-8.528,8.952C6.7,171.859,10.181,175.721,15.226,175.721Z" transform="translate(0.2 -151.478)"/><path class="a" d="M157.2,180.208V153.531a1.258,1.258,0,0,1,1.384-1.384h3.483a1.289,1.289,0,0,1,1.384,1.384v.647c0,.759.491.915,1.027.38a9.632,9.632,0,0,1,15.225,1.5,3.7,3.7,0,0,0,.424.58h.045a9.616,9.616,0,0,1,8.84-5.134c6.117,0,9.912,4.978,9.912,10.827v17.9a1.258,1.258,0,0,1-1.384,1.384h-3.75a1.258,1.258,0,0,1-1.384-1.384V163.51c0-4.242-2.255-6.161-5.469-6.161-3.259,0-5.581,2.143-5.581,6.206v16.654a1.258,1.258,0,0,1-1.384,1.384h-3.75a1.258,1.258,0,0,1-1.384-1.384V163.488c0-4.242-2.411-6.161-5.514-6.161-3.215,0-5.581,2.143-5.581,6.206v16.654a1.258,1.258,0,0,1-1.384,1.384h-3.75A1.248,1.248,0,0,1,157.2,180.208Z" transform="translate(-122.062 -151.478)"/><path class="b" d="M373.031,151.5a10.642,10.642,0,0,1,7.925,3.1c.536.58.96.647.96.045v-1.183a1.239,1.239,0,0,1,1.384-1.384l4.175.045a1.289,1.289,0,0,1,1.384,1.384v20.248a60.7,60.7,0,0,0,.313,6.318,1.192,1.192,0,0,1-1.295,1.5H383.7a1.449,1.449,0,0,1-1.563-1.183,6.537,6.537,0,0,1-.156-1.5c-.112-.759-.491-.848-.96-.313a11.223,11.223,0,0,1-8.416,3.438c-7.925,0-13.707-6.7-13.707-15.158C358.922,158.2,364.994,151.5,373.031,151.5Zm1.272,24.221c4.934,0,8.528-3.907,8.528-8.952s-3.594-8.952-8.528-8.952c-5.134,0-8.528,3.75-8.528,8.952C365.8,171.859,369.281,175.721,374.3,175.721Z" transform="translate(-278.735 -151.478)"/><path class="b" d="M535.654,180.248v2.634a1.289,1.289,0,0,1-1.384,1.384H512.884a1.258,1.258,0,0,1-1.384-1.384v-2.456a2.573,2.573,0,0,1,.647-1.719l15.381-18.261H513.6a1.289,1.289,0,0,1-1.384-1.384v-2.679A1.258,1.258,0,0,1,513.6,155h20.315a1.258,1.258,0,0,1,1.384,1.384v2.723a2.573,2.573,0,0,1-.647,1.719l-15.113,18.06H534.27A1.262,1.262,0,0,1,535.654,180.248Z" transform="translate(-397.269 -154.196)"/><path class="a" d="M627.8,166.625c0-8.461,6.318-15.225,14.957-15.225,8.572,0,14.421,6.742,14.421,15.917v.313a1.256,1.256,0,0,1-1.384,1.339H635.747a.708.708,0,0,0-.759.96,7.75,7.75,0,0,0,7.88,5.782,8.2,8.2,0,0,0,6.05-2.523,2.21,2.21,0,0,1,1.719-.8h4.242c1.027,0,1.563.647,1.116,1.563a14.356,14.356,0,0,1-13.238,8.081C634.14,182.073,627.8,175.153,627.8,166.625Zm7.992-2.947h13.439a.708.708,0,0,0,.759-.96,7.2,7.2,0,0,0-7.344-5.4,7.433,7.433,0,0,0-7.545,5.4C634.877,163.321,635.212,163.678,635.792,163.678Z" transform="translate(-487.607 -151.4)"/></g><g transform="translate(169.796 0)"><path class="a" d="M802.554,12.189c0,9.175-9.488,18.8-18.417,23.44a3.37,3.37,0,0,1-4.42,0c-8.93-4.643-18.417-14.265-18.417-23.44a13.091,13.091,0,0,1,6.05-11.3A5.288,5.288,0,0,1,770.006,0a1.907,1.907,0,0,1,2.1,1.875c0,.893-.58,1.5-1.674,2.143a9.049,9.049,0,0,0-4.465,7.858c0,7.211,7.434,15.046,13.841,18.618a3.2,3.2,0,0,0,4.242,0c6.407-3.572,13.841-11.43,13.841-18.618a9.049,9.049,0,0,0-4.465-7.858c-1.094-.625-1.674-1.25-1.674-2.143A1.92,1.92,0,0,1,793.848,0,5.352,5.352,0,0,1,796.5.893,13.042,13.042,0,0,1,802.554,12.189Z" transform="translate(-761.3 0)"/><g transform="translate(8.818 5.648)"><path class="b" d="M806.6,25.3a6.546,6.546,0,0,1,6.027,4.532,6.5,6.5,0,0,1,6.027-4.532c3.483,0,5.8,2.835,5.8,6.563,0,5.313-5,10.626-10,13.774a2.441,2.441,0,0,1-3.661,0c-5-3.125-10-8.461-10-13.774C800.8,28.157,803.122,25.3,806.6,25.3Z" transform="translate(-800.8 -25.3)"/></g></g></g></svg>