<svg xmlns="http://www.w3.org/2000/svg" viewBox="12 122 24 24"><path d="M8.907,0A2,2,0,0,0,6.933,1.973V7.68A2,2,0,0,0,8.907,9.653h5.707A2,2,0,0,0,16.587,7.68V1.92A2.042,2.042,0,0,0,14.56,0Zm0,1.067H14.56a.992.992,0,0,1,.96.96V7.68a.868.868,0,0,1-.907.907H8.907A.868.868,0,0,1,8,7.68V1.973A.868.868,0,0,1,8.907,1.067Zm2.293,1.6v1.6H9.6V5.333h1.6v1.6h1.067v-1.6h1.6V4.267h-1.6v-1.6Zm-9.227,1.6A2,2,0,0,0,0,6.24V24H24V6.24a2,2,0,0,0-1.973-1.973H17.6V5.333h4.427a.868.868,0,0,1,.907.907V22.933H14.4V17.067H9.067v5.867h-8V6.24a.868.868,0,0,1,.907-.907H5.867V4.267Zm.16,6.933v4.267h4.8V11.2h-4.8Zm6.933,0v4.267H14.4V11.2H9.067Zm7.467,0v4.267h4.8V11.2h-4.8ZM3.2,12.267H5.867V14.4H3.2Zm6.933,0h3.2V14.4h-3.2Zm7.467,0h2.667V14.4H17.6Zm-15.467,4.8v4.267h4.8V17.067h-4.8Zm14.4,0v4.267h4.8V17.067h-4.8Zm-6.4,1.067h3.2v4.8h-3.2Zm-6.933,0H5.867v2.133H3.2Zm14.4,0h2.667v2.133H17.6Z" transform="translate(12 122)"/></svg>