<svg xmlns="http://www.w3.org/2000/svg" viewBox="177.875 323.875 19.25 19.25"><defs><style>.a{fill:none;stroke:#000;stroke-width:1.25px;}</style></defs><path class="a" d="M-4438.261,18a1.175,1.175,0,0,1-1.174-1.174V11.739a1.175,1.175,0,0,1,1.174-1.174h5.087A1.174,1.174,0,0,1-4432,11.739v5.087A1.174,1.174,0,0,1-4433.174,18Zm-10.565,0A1.174,1.174,0,0,1-4450,16.826V11.739a1.174,1.174,0,0,1,1.174-1.174h5.086a1.175,1.175,0,0,1,1.175,1.174v5.087A1.175,1.175,0,0,1-4443.74,18Zm10.565-10.565a1.175,1.175,0,0,1-1.174-1.174V1.174A1.175,1.175,0,0,1-4438.261,0h5.087A1.174,1.174,0,0,1-4432,1.174V6.261a1.174,1.174,0,0,1-1.173,1.174Zm-10.565,0A1.174,1.174,0,0,1-4450,6.261V1.174A1.174,1.174,0,0,1-4448.827,0h5.086a1.175,1.175,0,0,1,1.175,1.174V6.261a1.175,1.175,0,0,1-1.175,1.174Z" transform="translate(4628.501 324.5)"/></svg>