<svg xmlns="http://www.w3.org/2000/svg" viewBox="12.375 269.375 24.25 24.25"><defs><style>.a{fill:#062466;stroke:#95989a;stroke-width:0.25px;}</style></defs><path class="a" d="M12,0A12,12,0,1,0,24,12,12,12,0,0,0,12,0Zm0,1.043A10.957,10.957,0,1,1,1.043,12,10.955,10.955,0,0,1,12,1.043Zm.157,4.435a3.341,3.341,0,0,0-3.5,2.974c0,.1.052.209.157.209l1.2.209c.1,0,.209-.052.209-.157a1.887,1.887,0,0,1,1.93-1.774,1.7,1.7,0,0,1,1.826,1.722,3.179,3.179,0,0,1-.887,1.983l-1.252,1.722a2.331,2.331,0,0,0-.574,1.67v.783a.191.191,0,0,0,.209.209H12.73a.191.191,0,0,0,.209-.209v-.574a2.008,2.008,0,0,1,.47-1.409l1.252-1.722A3.914,3.914,0,0,0,15.6,8.661,3.229,3.229,0,0,0,12.157,5.478Zm-.835,10.957a.191.191,0,0,0-.209.209v1.617a.191.191,0,0,0,.209.209H12.73a.191.191,0,0,0,.209-.209V16.643a.191.191,0,0,0-.209-.209Z" transform="translate(12.5 269.5)"/></svg>