<svg xmlns="http://www.w3.org/2000/svg" viewBox="10 169 27.316 28"><path d="M3.422,0A1.176,1.176,0,0,0,2.4.627,6.45,6.45,0,0,0,1.54.855a2.878,2.878,0,0,0-.969.57A1.567,1.567,0,0,0,0,2.509a5.316,5.316,0,0,0,.114.8c.057.4.114.855.228,1.426C.57,5.874.912,7.3,1.369,8.782c.912,2.965,2.224,6.1,4.334,7.356v.114a5.586,5.586,0,0,0,.57,2.224,3.746,3.746,0,0,0,.684.969,3.134,3.134,0,0,0,.513.4,9.4,9.4,0,0,0,1.2,5.018C9.809,26.631,12.09,28,15.967,28c3.593,0,5.646-1.483,6.729-3.136a7.5,7.5,0,0,0,1.2-3.707,3.963,3.963,0,1,0-1.2,0,6.679,6.679,0,0,1-1.026,3.136c-.8,1.255-2.452,2.509-5.7,2.509-3.65,0-5.418-1.141-6.387-2.623a8.051,8.051,0,0,1-1.026-4.391,3.164,3.164,0,0,0,.456-.342,2.982,2.982,0,0,0,.684-.969,5.586,5.586,0,0,0,.57-2.224v-.114c2.167-1.312,3.422-4.448,4.334-7.356.456-1.483.8-2.908,1.026-4.049.114-.57.171-1.084.228-1.426.057-.4.114-.627.114-.8a1.459,1.459,0,0,0-.57-1.084,3.17,3.17,0,0,0-.969-.513C14.086.8,13.8.741,13.572.684h0A1.127,1.127,0,0,0,12.546,0a1.141,1.141,0,1,0,0,2.281,1.036,1.036,0,0,0,.912-.456,2.173,2.173,0,0,1,.57.171,3.092,3.092,0,0,1,.627.342c.171.057.171.114.171.171a5.361,5.361,0,0,1-.057.684c-.057.4-.171.8-.285,1.312-.228,1.084-.57,2.509-1.026,3.935-.855,2.794-2.224,5.646-3.764,6.672a1.429,1.429,0,0,0-.4-.228,5.063,5.063,0,0,0-1.312-.057,5.62,5.62,0,0,0-1.369.057,1.429,1.429,0,0,0-.4.228c-1.54-1.026-2.908-3.878-3.764-6.672C2,7.014,1.654,5.589,1.426,4.505c-.057-.513-.171-.969-.228-1.369a4.938,4.938,0,0,1-.057-.627c0-.057,0-.114.114-.228a3.092,3.092,0,0,1,.627-.342c.228-.057.4-.114.57-.171a1.12,1.12,0,0,0,.969.513A1.141,1.141,0,0,0,3.422,0ZM23.381,14.257a2.824,2.824,0,0,1,2.851,2.851,2.886,2.886,0,0,1-2.794,2.851h-.057a2.851,2.851,0,0,1,0-5.7Zm0,1.141a1.711,1.711,0,1,0,1.711,1.711A1.754,1.754,0,0,0,23.381,15.4ZM7.3,15.967H9.067a.692.692,0,0,1,.057.285,4.514,4.514,0,0,1-.456,1.711,1.381,1.381,0,0,1-.456.627c-.114.114-.171.114-.228.114H7.927c-.057,0-.114-.057-.228-.114a3.588,3.588,0,0,1-.456-.627,4.514,4.514,0,0,1-.456-1.711c0-.228.057-.285.057-.285H7.3Zm16.081.57a.57.57,0,1,1-.57.57A.539.539,0,0,1,23.381,16.538Z" transform="translate(10 169)"/></svg>