<svg xmlns="http://www.w3.org/2000/svg" viewBox="12 220 23.948 24"><path d="M10.564-.048a.561.561,0,0,0-.521.416L9.523,3.492A6.328,6.328,0,0,0,7.8,4.221L5.254,2.4a.491.491,0,0,0-.677.052L2.547,4.429a.551.551,0,0,0-.052.677L4.317,7.657a10.542,10.542,0,0,0-.729,1.77L.516,9.948a.507.507,0,0,0-.416.521v2.863a.507.507,0,0,0,.416.521l3.072.573a7.468,7.468,0,0,0,.729,1.77l-1.822,2.5a.551.551,0,0,0,.052.677l2.03,2.03a.546.546,0,0,0,.677.052l2.6-1.822a12.126,12.126,0,0,0,1.718.729l.521,3.124a.507.507,0,0,0,.521.416H13.48A.507.507,0,0,0,14,23.484l.573-3.124a6.327,6.327,0,0,0,1.718-.729l2.6,1.822a.551.551,0,0,0,.677-.052l2.03-2.03a.546.546,0,0,0,.052-.677l-1.874-2.551a8.525,8.525,0,0,0,.729-1.718l3.124-.573a.507.507,0,0,0,.416-.521V10.468a.561.561,0,0,0-.416-.521l-3.124-.521a6.328,6.328,0,0,0-.729-1.718l1.822-2.6a.551.551,0,0,0-.052-.677L19.519,2.4a.546.546,0,0,0-.677-.052L16.291,4.169a10.014,10.014,0,0,0-1.718-.729L14.052.316A.507.507,0,0,0,13.532-.1H10.564ZM11.033.993h1.978l.521,2.967a.6.6,0,0,0,.364.416,7.707,7.707,0,0,1,2.134.885.564.564,0,0,0,.573,0l2.447-1.77L20.456,4.9,18.738,7.345a.564.564,0,0,0,0,.573,7.707,7.707,0,0,1,.885,2.134.442.442,0,0,0,.416.364l2.967.469v1.978l-2.967.521a.6.6,0,0,0-.416.364,7.707,7.707,0,0,1-.885,2.134.564.564,0,0,0,0,.573l1.77,2.447L19.1,20.308,16.655,18.59a.564.564,0,0,0-.573,0,7.1,7.1,0,0,1-2.134.885.442.442,0,0,0-.364.416l-.521,2.967H11.085l-.469-2.967a.6.6,0,0,0-.364-.416,7.707,7.707,0,0,1-2.134-.885.564.564,0,0,0-.573,0L5.1,20.308,3.692,18.9,5.41,16.507a.564.564,0,0,0,0-.573A7.707,7.707,0,0,1,4.525,13.8a.442.442,0,0,0-.416-.364l-2.915-.521V10.937l2.915-.469a.6.6,0,0,0,.416-.364A7.1,7.1,0,0,1,5.41,7.969a.564.564,0,0,0,0-.573L3.588,4.9,4.994,3.492,7.441,5.21a.564.564,0,0,0,.573,0,7.707,7.707,0,0,1,2.134-.885.442.442,0,0,0,.364-.416Zm.989,6.768a4.165,4.165,0,1,0,4.165,4.165A4.177,4.177,0,0,0,12.022,7.761Zm0,1.041A3.124,3.124,0,1,1,8.9,11.926,3.133,3.133,0,0,1,12.022,8.8Z" transform="translate(11.9 220.1)"/></svg>