<svg xmlns="http://www.w3.org/2000/svg" viewBox="12.375 318.375 24.014 24.25"><defs><style>.a{stroke:#000;stroke-width:0.25px;}</style></defs><path class="a" d="M.384,0A.467.467,0,0,0,0,.48V23.52A.481.481,0,0,0,.48,24h14.4a.481.481,0,0,0,.48-.48v-4.8H14.4v4.32H1.008V1.008H14.4v4.32h1.008V.48a.481.481,0,0,0-.48-.48H.384ZM18.672,7.248a.465.465,0,0,0-.384.336.434.434,0,0,0,.144.48l3.456,3.456H7.632a.481.481,0,0,0-.48.48.516.516,0,0,0,.48.48H21.84l-3.456,3.456a.434.434,0,0,0-.144.48.521.521,0,0,0,.384.384.534.534,0,0,0,.48-.144l4.272-4.272.336-.336-.336-.336L19.1,7.44a.468.468,0,0,0-.432-.192Z" transform="translate(12.5 318.5)"/></svg>