<svg xmlns="http://www.w3.org/2000/svg" viewBox="582 474 41.061 40"><path d="M19.551,0a16.043,16.043,0,0,0-6.695,1.373.832.832,0,0,0-.6.687.816.816,0,0,0,.343.858.926.926,0,0,0,.944,0,14.42,14.42,0,0,1,6.008-1.2,18.373,18.373,0,0,1,8.583,1.974.884.884,0,1,0,.858-1.545A21,21,0,0,0,19.551,0ZM10.282,2.832A.446.446,0,0,0,9.938,3,23.937,23.937,0,0,0,4.445,8.583c-.687.858-1.2,1.717-1.631,2.317a6.238,6.238,0,0,1-.944,1.2,1.056,1.056,0,0,0-.429.858.916.916,0,0,0,.6.772,1.192,1.192,0,0,0,.944-.172,6.116,6.116,0,0,0,1.287-1.545C4.789,11.329,5.3,10.557,5.9,9.7a20.425,20.425,0,0,1,5.064-5.15,1.787,1.787,0,0,0,.257-1.116,1.055,1.055,0,0,0-.944-.6Zm9.87,1.459a.92.92,0,0,0-.772.944c0,.429.515.772.944.772,8.754.515,12.445,5.321,13.99,10.9a27.754,27.754,0,0,1,0,13.99.869.869,0,0,0,1.631.6,28.646,28.646,0,0,0,0-14.934C34.228,10.643,29.85,4.806,20.5,4.291h-.343Zm11.587.086a.931.931,0,0,0-.687.687.816.816,0,0,0,.343.858c6.695,4.635,7.81,15.106,7.81,15.106a.863.863,0,1,0,1.717-.172s-.944-11.072-8.5-16.393A.912.912,0,0,0,31.739,4.377ZM16.8,4.635h0c-6.008,1.2-8.84,5.321-11.072,8.754a.945.945,0,0,0,.257,1.2.844.844,0,0,0,1.2-.257c2.232-3.433,4.635-6.952,9.87-7.982a.93.93,0,0,0,.687-.944A.852.852,0,0,0,16.8,4.635Zm3.6,3.948a10.709,10.709,0,0,0-7.038,2.4.858.858,0,1,0,1.03,1.373,9.1,9.1,0,0,1,5.922-1.974,16.72,16.72,0,0,1,2.146.172.823.823,0,0,0,.858-.257,1.057,1.057,0,0,0,.172-.858.748.748,0,0,0-.687-.515A7.077,7.077,0,0,0,20.409,8.583Zm5.407,1.2c-.086,0-.086.086,0,0a1.015,1.015,0,0,0-.772.772.816.816,0,0,0,.515.858c3.776,1.888,6.094,6.094,6.094,11.758a26.86,26.86,0,0,1-.515,5.15.875.875,0,0,0,1.717.343,28.17,28.17,0,0,0,.515-5.407c0-6.094-2.575-10.986-7.038-13.218A.742.742,0,0,0,25.816,9.784Zm-5.407,3.09a8.121,8.121,0,0,0-5.321,1.8,12.4,12.4,0,0,0-3,4.034.884.884,0,0,0,1.545.858A11.335,11.335,0,0,1,16.2,16.05a6.208,6.208,0,0,1,4.206-1.459,6.136,6.136,0,0,1,4.12,1.459,8.27,8.27,0,0,1,2.232,3.519.848.848,0,0,0,.6.6.823.823,0,0,0,.858-.257,1.057,1.057,0,0,0,.172-.858,8.836,8.836,0,0,0-2.747-4.291A8.1,8.1,0,0,0,20.409,12.874Zm-9.012.515a1.383,1.383,0,0,0-.6.343C9.08,16.05,7.878,18.625,6.419,20.427s-2.832,3-5.321,2.747a.866.866,0,0,0-.944.772c-.086.429.343.858.772.944,3.09.257,5.236-1.287,6.866-3.347s2.832-4.635,4.377-6.78a.79.79,0,0,0,.086-.858.986.986,0,0,0-.772-.515Zm-6.866,2.4H4.359a.788.788,0,0,0-.515.343c-1.03,1.373-1.974,2.4-3.261,2.747a.931.931,0,0,0-.687.687.816.816,0,0,0,.343.858.921.921,0,0,0,.944.086A9.183,9.183,0,0,0,5.3,17.166a.921.921,0,0,0,.086-.944A.872.872,0,0,0,4.531,15.792Zm14.419.858c-.086,0-.172.086-.257.086-1.459.772-2.146,2.4-2.747,4.12a36.251,36.251,0,0,1-1.631,4.463C12.6,28.495,9.423,31.756,4.96,31.756a.9.9,0,0,0-.772.429.78.78,0,0,0,0,.858,1.024,1.024,0,0,0,.772.429c5.236,0,8.926-3.776,10.814-7.381a31.048,31.048,0,0,0,1.717-4.721A5.776,5.776,0,0,1,19.465,18.2a.929.929,0,0,0,.429-1.03A.811.811,0,0,0,18.95,16.651Zm3,.172a.931.931,0,0,0-.687.687.752.752,0,0,0,.429.858c.858.6,1.373,2.06,1.373,4.034a22.248,22.248,0,0,1-1.717,7.467c-1.287,3.09-3.176,6.437-6.094,8.5a.77.77,0,0,0-.172,1.2.778.778,0,0,0,1.2.172,20.184,20.184,0,0,0,6.695-9.269,25.185,25.185,0,0,0,1.8-8.068c0-2.232-.515-4.377-2.146-5.493A.969.969,0,0,0,21.954,16.822ZM20.323,20.6a.814.814,0,0,0-.687.772,20.221,20.221,0,0,1-1.631,6.18.926.926,0,0,0,0,.944.816.816,0,0,0,.858.343.832.832,0,0,0,.687-.6,20.819,20.819,0,0,0,1.8-6.695.975.975,0,0,0-.257-.687A1.2,1.2,0,0,0,20.323,20.6Zm-9.269.858a1.1,1.1,0,0,0-.6.429,12.673,12.673,0,0,1-3,3.948,7.462,7.462,0,0,1-5.064,1.631.9.9,0,0,0-.772.429.78.78,0,0,0,0,.858.9.9,0,0,0,.772.429,9.5,9.5,0,0,0,6.18-1.974A14.461,14.461,0,0,0,12,22.744a.926.926,0,0,0,0-.944.89.89,0,0,0-.944-.343Zm16.994.858h-.086a.836.836,0,0,0-.687.858,27.268,27.268,0,0,1-5.15,15.449.84.84,0,0,0,.172,1.2.829.829,0,0,0,1.2-.172,29.164,29.164,0,0,0,5.493-16.565.975.975,0,0,0-.257-.687A.912.912,0,0,0,28.048,22.315ZM17.062,29.868a.645.645,0,0,0-.6.429,15.2,15.2,0,0,1-6.78,5.75.845.845,0,0,0,.687,1.545,17.194,17.194,0,0,0,7.553-6.437.926.926,0,0,0,0-.944A.877.877,0,0,0,17.062,29.868Zm13.9,1.287a.931.931,0,0,0-.687.687,41.622,41.622,0,0,1-1.373,4.291,1.016,1.016,0,0,0,.086.858,1,1,0,0,0,.858.343.832.832,0,0,0,.687-.6s.687-1.888,1.373-4.463a.823.823,0,0,0-.172-.772,1.088,1.088,0,0,0-.772-.343Z" transform="translate(582.126 474)"/></svg>