<svg xmlns="http://www.w3.org/2000/svg" viewBox="156 96 64 64"><path d="M32,0A32,32,0,1,0,64,32,32,32,0,0,0,32,0Zm0,2.783A29.217,29.217,0,1,1,2.783,32,29.214,29.214,0,0,1,32,2.783ZM20.174,15.3a7.783,7.783,0,0,0-5.983,2.5,10.151,10.151,0,0,0-1.67,2.643,1.409,1.409,0,1,0,2.643.974v-.139a6.376,6.376,0,0,1,.974-1.53,4.792,4.792,0,0,1,4.035-1.67,5,5,0,0,1,4.035,1.67,6.376,6.376,0,0,1,.974,1.53,1.321,1.321,0,0,0,1.67.974,1.379,1.379,0,0,0,.974-1.67v-.139a7.843,7.843,0,0,0-1.53-2.643A8.121,8.121,0,0,0,20.174,15.3Zm23.652,0a7.783,7.783,0,0,0-5.983,2.5,10.151,10.151,0,0,0-1.67,2.643,1.409,1.409,0,0,0,2.643.974v-.139a6.376,6.376,0,0,1,.974-1.53,4.792,4.792,0,0,1,4.035-1.67,5.223,5.223,0,0,1,4.035,1.67,6.376,6.376,0,0,1,.974,1.53,1.321,1.321,0,0,0,1.67.974,1.379,1.379,0,0,0,.974-1.67v-.139a7.843,7.843,0,0,0-1.53-2.643A8.121,8.121,0,0,0,43.826,15.3ZM16.7,29.217A1.314,1.314,0,0,0,15.3,30.609a33.792,33.792,0,0,0,4.174,16.7c2.783,4.73,7.1,8.348,12.522,8.348s9.739-3.617,12.522-8.348a33.792,33.792,0,0,0,4.174-16.7A1.314,1.314,0,0,0,47.3,29.217ZM18.226,32H45.774c-.278,4.87-1.391,10.017-3.617,13.913C39.652,50.226,36.313,52.87,32,52.87s-7.652-2.643-10.157-6.957C19.617,42.017,18.5,36.87,18.226,32Z" transform="translate(156 96)"/></svg>